<svg width="715" height="173" viewBox="0 0 715 173" fill="none" xmlns="http://www.w3.org/2000/svg">
<g clip-path="url(#clip0_80469_56)">
<path d="M0 0.149901H159.151C159.151 0.149901 188.779 -2.95811 202.9 19.4345C217.021 41.8272 225.636 55.6073 225.636 55.6073H159.488L225.636 173.038H73.7137L59.9298 49.0542L0 0.149901Z" fill="white"/>
<path d="M225.598 69.949V138.924L185.745 69.949H225.598Z" fill="white"/>
<path d="M313.92 105.073H301.297V24.3772H270.958V11.7954H344.334V24.3772H313.92V105.036V105.073Z" fill="white"/>
<path d="M395.986 105.073C387.708 105.073 380.292 102.714 373.737 97.9958C370.254 95.487 367.22 92.4913 364.71 88.9714C359.991 82.4558 357.631 75.079 357.631 66.8034V11.7954H370.254V66.8034C370.254 71.5216 371.415 75.8279 373.737 79.6848C376.059 83.5417 379.131 86.6872 382.989 88.9714C386.847 91.293 391.154 92.4538 395.911 92.4538C400.668 92.4538 404.938 91.293 408.796 88.9714C412.654 86.6497 415.763 83.5417 418.048 79.6848C420.333 75.7904 421.494 71.4842 421.494 66.8034V11.7954H434.117V66.8034C434.117 75.0415 431.757 82.4558 427.037 88.9714C424.528 92.4538 421.531 95.487 418.01 97.9958C411.493 102.714 404.114 105.073 395.836 105.073H395.986Z" fill="white"/>
<path d="M530.266 105.073H514.273L488.091 71.7837H463.594V105.073H450.972V11.7954H497.118C504.609 11.7954 511.126 14.2294 516.707 19.0599C519.891 21.8309 522.438 25.1636 524.311 29.0954C526.184 33.0272 527.12 37.2586 527.12 41.7896C527.12 46.3205 526.184 50.5519 524.311 54.4463C522.438 58.3406 519.891 61.7108 516.707 64.4443C513.973 66.8034 510.864 68.6383 507.381 69.874L503.822 71.1097L530.341 104.998L530.266 105.073ZM497.08 59.127C501.875 59.127 505.957 57.4419 509.366 54.0344C512.774 50.6268 514.46 46.5826 514.46 41.827C514.46 37.0714 512.774 32.9523 509.366 29.5448C505.957 26.1372 501.875 24.4521 497.08 24.4521H463.557V59.127H497.08Z" fill="white"/>
<path d="M629.899 105.073H616.228L608.437 86.4626H562.216L554.425 105.073H540.754L579.708 11.7581H590.87L629.899 105.073ZM603.118 73.8059L585.289 31.155L567.535 73.8059H603.118Z" fill="white"/>
<path d="M715 105.073H703.838L655.669 35.9855V105.073H643.047V11.7954H654.209L702.415 81.4073V11.7954H715V105.036V105.073Z" fill="white"/>
<path d="M307.365 169.33C304.106 169.33 301.147 168.544 298.45 166.934C295.791 165.361 293.656 163.227 292.045 160.531C290.435 157.835 289.648 154.914 289.648 151.619C289.648 148.323 290.435 145.44 292.045 142.744C293.619 140.085 295.754 137.951 298.45 136.341C301.11 134.768 304.106 133.944 307.365 133.944C309.762 133.944 312.01 134.393 314.145 135.292C316.28 136.191 318.115 137.427 319.763 139.037L317.89 140.872C316.542 139.524 314.931 138.475 313.133 137.726C311.335 136.977 309.425 136.603 307.365 136.603C304.593 136.603 302.046 137.277 299.799 138.625C297.514 139.973 295.716 141.77 294.368 144.054C293.019 146.339 292.345 148.848 292.345 151.619C292.345 154.39 293.019 156.936 294.368 159.183C295.716 161.467 297.514 163.264 299.799 164.612C302.084 165.96 304.593 166.634 307.365 166.634C309.388 166.634 311.298 166.26 313.096 165.511C314.894 164.762 316.467 163.714 317.853 162.366L319.688 164.2C318.077 165.773 316.242 167.009 314.107 167.908C312.009 168.806 309.725 169.256 307.327 169.256L307.365 169.33Z" fill="white"/>
<path d="M336.019 169.331H325.269V134.019H336.019C339.427 134.019 342.536 134.918 345.308 136.678C347.855 138.288 349.878 140.385 351.376 143.006C352.912 145.627 353.661 148.511 353.661 151.693C353.661 154.876 352.912 157.76 351.376 160.381C349.84 163.002 347.818 165.099 345.308 166.709C342.536 168.469 339.427 169.368 336.019 169.368V169.331ZM336.019 166.672C338.791 166.672 341.3 165.998 343.585 164.65C345.87 163.302 347.668 161.504 349.016 159.22C350.365 156.936 351.039 154.427 351.039 151.656C351.039 148.885 350.365 146.376 349.016 144.129C347.668 141.883 345.87 140.085 343.623 138.737C341.375 137.389 338.866 136.715 336.094 136.678H327.891V166.672H336.019Z" fill="white"/>
<path d="M381.865 169.331H360.216V134.019H362.875V166.672H381.903V169.331H381.865Z" fill="white"/>
<path d="M411.98 169.33C408.272 169.33 404.826 168.207 401.642 165.998C401.53 165.923 401.267 165.698 400.893 165.399C400.518 165.099 400.069 164.687 399.619 164.275C399.17 163.863 398.795 163.489 398.496 163.189C398.196 162.89 398.046 162.703 398.046 162.59L399.919 160.68C402.279 163.676 405.275 165.586 408.908 166.335C409.995 166.559 411.006 166.672 412.055 166.672C414.602 166.672 417.036 166.035 419.396 164.762C420.295 164.275 421.119 163.676 421.831 162.927C422.542 162.216 423.029 161.317 423.254 160.306C423.329 159.932 423.366 159.557 423.366 159.183C423.366 158.284 423.142 157.385 422.655 156.524C422.168 155.663 421.419 154.839 420.37 154.127C419.321 153.416 418.235 152.892 417.111 152.517C415.463 152.03 413.778 151.731 412.055 151.693C410.669 151.619 409.283 151.431 407.935 151.132C406.586 150.832 405.35 150.345 404.226 149.709C403.103 149.072 402.166 148.174 401.455 147.013C400.706 145.665 400.331 144.317 400.331 142.931C400.331 141.995 400.481 141.059 400.818 140.085C401.417 138.587 402.316 137.427 403.477 136.528C404.676 135.667 405.987 135.03 407.485 134.693C408.983 134.319 410.444 134.131 411.942 134.131C413.928 134.131 415.838 134.431 417.636 135.067C419.434 135.704 421.082 136.565 422.542 137.689L420.67 139.598C417.973 137.726 415.051 136.827 411.867 136.827C411.231 136.827 410.594 136.827 409.957 136.94C408.834 137.09 407.71 137.389 406.661 137.838C405.612 138.288 404.713 138.924 404.002 139.748C403.29 140.572 402.915 141.621 402.915 142.931C402.915 144.017 403.215 144.991 403.777 145.814C404.339 146.638 405.088 147.312 406.062 147.799C407.036 148.286 408.047 148.623 409.058 148.773C410.107 148.922 411.156 149.035 412.205 149.11C413.478 149.147 414.752 149.297 416.025 149.559C417.598 149.896 419.096 150.42 420.52 151.169C421.943 151.918 423.179 152.892 424.228 154.127C425.464 155.663 426.063 157.385 426.063 159.37C426.063 161.13 425.502 162.74 424.378 164.238C422.88 165.998 421.007 167.308 418.684 168.17C416.362 169.031 414.115 169.443 411.98 169.443V169.33Z" fill="white"/>
<path d="M448.312 169.33C445.054 169.33 442.095 168.544 439.398 166.934C436.739 165.361 434.604 163.227 432.993 160.531C431.382 157.835 430.596 154.914 430.596 151.619C430.596 148.323 431.382 145.44 432.993 142.744C434.566 140.085 436.701 137.951 439.398 136.341C442.057 134.768 445.054 133.944 448.312 133.944C450.71 133.944 452.957 134.393 455.092 135.292C457.227 136.191 459.062 137.427 460.71 139.037L458.838 140.872C457.489 139.524 455.879 138.475 454.081 137.726C452.283 136.977 450.373 136.603 448.312 136.603C445.541 136.603 442.994 137.277 440.746 138.625C438.461 139.973 436.664 141.77 435.315 144.054C433.967 146.339 433.293 148.848 433.293 151.619C433.293 154.39 433.967 156.936 435.315 159.183C436.664 161.467 438.461 163.264 440.746 164.612C443.031 165.96 445.541 166.634 448.312 166.634C450.335 166.634 452.245 166.26 454.043 165.511C455.841 164.762 457.414 163.714 458.8 162.366L460.636 164.2C459.025 165.773 457.19 167.009 455.055 167.908C452.957 168.806 450.672 169.256 448.275 169.256L448.312 169.33Z" fill="white"/>
<path d="M494.758 169.331H492.099V150.158H468.838V169.331H466.179V134.019H468.838V147.537H492.099V134.019H494.758V169.331Z" fill="white"/>
<path d="M518.131 169.33C514.872 169.33 511.913 168.544 509.216 166.934C506.557 165.361 504.422 163.227 502.811 160.531C501.2 157.835 500.414 154.914 500.414 151.619C500.414 148.323 501.2 145.44 502.811 142.744C504.384 140.085 506.519 137.951 509.216 136.341C511.875 134.768 514.872 133.944 518.131 133.944C521.389 133.944 524.311 134.73 527.008 136.341C529.667 137.913 531.802 140.048 533.413 142.744C534.986 145.403 535.81 148.361 535.81 151.619C535.81 154.876 535.023 157.835 533.413 160.531C531.839 163.189 529.704 165.324 527.008 166.934C524.348 168.507 521.389 169.33 518.131 169.33ZM518.131 166.672C520.902 166.672 523.412 165.998 525.697 164.65C527.982 163.302 529.779 161.504 531.128 159.22C532.476 156.936 533.15 154.427 533.15 151.656C533.15 148.885 532.476 146.376 531.128 144.092C529.779 141.808 527.982 140.01 525.697 138.662C523.412 137.314 520.902 136.64 518.131 136.64C515.359 136.64 512.812 137.314 510.564 138.662C508.28 140.01 506.482 141.808 505.133 144.092C503.785 146.376 503.111 148.885 503.111 151.656C503.111 154.427 503.785 156.973 505.133 159.22C506.482 161.504 508.28 163.302 510.564 164.65C512.849 165.998 515.359 166.672 518.131 166.672Z" fill="white"/>
<path d="M558.433 169.33C555.175 169.33 552.216 168.544 549.519 166.934C546.859 165.361 544.724 163.227 543.114 160.531C541.503 157.835 540.717 154.914 540.717 151.619C540.717 148.323 541.503 145.44 543.114 142.744C544.687 140.085 546.822 137.951 549.519 136.341C552.178 134.768 555.175 133.944 558.433 133.944C561.692 133.944 564.614 134.73 567.31 136.341C569.97 137.913 572.105 140.048 573.715 142.744C575.289 145.403 576.113 148.361 576.113 151.619C576.113 154.876 575.326 157.835 573.715 160.531C572.142 163.189 570.007 165.324 567.31 166.934C564.651 168.507 561.692 169.33 558.433 169.33ZM558.433 166.672C561.205 166.672 563.715 165.998 565.999 164.65C568.284 163.302 570.082 161.504 571.431 159.22C572.779 156.936 573.453 154.427 573.453 151.656C573.453 148.885 572.779 146.376 571.431 144.092C570.082 141.808 568.284 140.01 565.999 138.662C563.715 137.314 561.205 136.64 558.433 136.64C555.662 136.64 553.115 137.314 550.867 138.662C548.582 140.01 546.784 141.808 545.436 144.092C544.088 146.376 543.413 148.885 543.413 151.656C543.413 154.427 544.088 156.973 545.436 159.22C546.784 161.504 548.582 163.302 550.867 164.65C553.152 165.998 555.662 166.672 558.433 166.672Z" fill="white"/>
<path d="M603.456 169.331H581.806V134.019H584.465V166.672H603.493V169.331H603.456Z" fill="white"/>
</g>
<defs>
<clipPath id="clip0_80469_56">
<rect width="715" height="173" fill="white"/>
</clipPath>
</defs>
</svg>
