<svg width="30" height="30" viewBox="0 0 30 30" fill="none" xmlns="http://www.w3.org/2000/svg">
<g clip-path="url(#clip0_20_52)">
<path fill-rule="evenodd" clip-rule="evenodd" d="M29.4 15.3333C29.3978 14.2711 29.3067 13.2489 29.1267 12.2667H15V18.0683H23.0733C22.725 19.9433 21.6683 21.5317 20.08 22.5967V26.36H24.9267C27.7633 23.7483 29.4 19.9033 29.4 15.335V15.3333Z" fill="#4285F4"/>
<path fill-rule="evenodd" clip-rule="evenodd" d="M15.0051 30C19.0551 30 22.4501 28.6567 24.9318 26.3667L20.0834 22.6C18.7401 23.5 17.0234 24.0333 15.0051 24.0333C11.0984 24.0333 7.79176 21.3933 6.61176 17.8483H1.6001V21.735C4.06676 26.6383 9.14176 30 15.0051 30Z" fill="#34A853"/>
<path fill-rule="evenodd" clip-rule="evenodd" d="M6.60667 17.8533C6.30667 16.9533 6.13667 15.9917 6.13667 15.0033C6.13667 14.015 6.30667 13.0533 6.60667 12.1533V8.26666H1.595C0.578333 10.2917 0 12.5833 0 15.0033C0 17.4233 0.58 19.715 1.595 21.74L6.60667 17.8533Z" fill="#FBBC05"/>
<path fill-rule="evenodd" clip-rule="evenodd" d="M15.0051 5.96667C17.2068 5.96667 19.1851 6.72333 20.7384 8.20833L25.0418 3.90833C22.4401 1.485 19.0468 0 15.0034 0C9.14176 0 4.06676 3.36167 1.6001 8.26333L6.61176 12.15C7.79176 8.605 11.0984 5.96667 15.0051 5.96667Z" fill="#EA4335"/>
</g>
<defs>
<clipPath id="clip0_20_52">
<rect width="30" height="30" fill="white"/>
</clipPath>
</defs>
</svg>
