<svg width="37" height="24" viewBox="0 0 37 24" fill="none" xmlns="http://www.w3.org/2000/svg">
<g clip-path="url(#clip0_12_376)">
<path d="M9 2C9 0.89375 9.89375 0 11 0H35C36.1063 0 37 0.89375 37 2C37 3.10625 36.1063 4 35 4H11C9.89375 4 9 3.10625 9 2ZM0 12C0 10.8937 0.89375 10 2 10H26C27.1063 10 28 10.8937 28 12C28 13.1063 27.1063 14 26 14H2C0.89375 14 0 13.1063 0 12ZM37 22C37 23.1063 36.1063 24 35 24H11C9.89375 24 9 23.1063 9 22C9 20.8937 9.89375 20 11 20H35C36.1063 20 37 20.8937 37 22Z" fill="white"/>
</g>
<defs>
<clipPath id="clip0_12_376">
<rect width="37" height="24" fill="white"/>
</clipPath>
</defs>
</svg>
